{"glyphs":{":":{"x_min":0,"x_max":317,"ha":317,"o":"m 158 355 q 116 355 88 384 q 59 413 59 454 q 59 496 88 525 q 117 554 158 554 q 199 554 229 525 q 258 495 258 454 q 258 413 229 384 q 200 355 158 355 z m 158 -8 q 116 -8 88 21 q 59 49 59 91 q 59 132 88 162 q 117 191 158 191 q 199 191 229 162 q 258 132 258 91 q 258 50 229 21 q 200 -8 158 -8 z"},"$":{"x_min":0,"x_max":542,"ha":542,"o":"m 300 107 q 346 112 370 135 q 394 158 394 198 q 394 230 372 253 q 349 277 300 296 z m 240 618 q 200 612 179 592 q 158 572 158 539 q 158 513 179 491 q 199 469 240 452 z m 310 432 q 427 388 475 338 q 523 288 523 212 q 523 124 464 68 q 406 13 300 3 l 300 -84 l 230 -84 l 230 4 q 159 9 104 36 q 48 62 7 111 l 84 189 q 118 149 154 130 q 190 111 230 111 l 230 317 q 119 361 73 408 q 28 455 28 522 q 28 604 84 658 q 141 711 240 724 l 240 796 l 310 796 l 310 724 q 368 718 414 698 q 459 678 495 642 l 425 556 q 399 585 371 600 q 343 615 310 617 z"},"?":{"x_min":0,"x_max":602,"ha":602,"o":"m 173 257 l 173 455 q 179 455 186 454 q 192 454 205 454 q 282 454 321 482 q 360 510 360 565 q 360 604 337 628 q 314 651 275 651 q 238 651 216 630 q 194 609 191 572 l 35 572 l 35 578 q 35 676 103 734 q 171 792 285 792 q 396 792 462 730 q 529 669 529 566 q 529 475 479 419 q 429 363 337 352 l 337 257 z m 254 -8 q 212 -8 183 21 q 154 50 154 91 q 154 132 183 162 q 213 191 254 191 q 295 191 325 162 q 354 132 354 91 q 354 50 325 21 q 296 -8 254 -8 z"},"<":{"x_min":0,"x_max":833,"ha":833,"o":"m 704 583 l 704 476 l 268 298 l 704 120 l 704 13 l 129 250 l 129 347 z"},"'":{"x_min":0,"x_max":172,"ha":172,"o":"m 39 702 l 133 702 l 133 429 l 39 429 z"},"=":{"x_min":0,"x_max":833,"ha":833,"o":"m 124 242 l 709 242 l 709 145 l 124 145 z m 124 452 l 709 452 l 709 355 l 124 355 z"},"a":{"x_min":0,"x_max":579,"ha":579,"o":"m 281 128 q 322 128 344 173 q 366 218 366 301 q 366 384 344 428 q 322 473 281 473 q 240 473 218 428 q 195 383 195 301 q 195 218 218 173 q 240 128 281 128 z m 512 0 l 377 0 q 378 38 382 73 q 385 109 390 142 q 365 66 324 28 q 283 -10 227 -10 q 141 -10 86 76 q 32 162 32 302 q 32 447 83 530 q 133 613 221 613 q 269 613 306 582 q 344 551 365 494 q 360 521 357 549 q 354 577 353 604 l 512 604 z"},"L":{"x_min":0,"x_max":671,"ha":671,"o":"m 119 0 l 119 775 l 292 775 l 292 153 l 684 153 l 684 0 z"},"3":{"x_min":0,"x_max":542,"ha":542,"o":"m 386 396 q 442 371 471 325 q 500 279 500 213 q 500 111 435 47 q 371 -16 266 -16 q 165 -16 101 45 q 37 107 29 212 l 169 212 q 171 168 195 145 q 220 121 262 121 q 304 121 327 147 q 350 173 350 221 q 350 273 323 300 q 296 327 244 327 q 236 327 232 327 q 228 327 224 326 l 224 454 q 228 454 231 453 q 235 453 243 453 q 294 453 323 480 q 352 508 352 555 q 352 596 330 619 q 307 642 268 642 q 232 642 211 621 q 190 601 188 562 l 49 562 q 54 663 112 720 q 169 778 265 778 q 367 778 429 722 q 490 666 490 573 q 490 507 464 463 q 438 419 386 396 z"},";":{"x_min":0,"x_max":317,"ha":317,"o":"m -28 -88 l 89 241 l 255 241 l 101 -88 z m 168 355 q 126 355 97 384 q 68 413 68 454 q 68 495 97 525 q 127 554 168 554 q 209 554 239 525 q 268 495 268 454 q 268 413 239 384 q 210 355 168 355 z"},"J":{"x_min":0,"x_max":579,"ha":579,"o":"m 117 245 q 141 190 167 163 q 192 136 222 136 q 257 136 272 162 q 287 187 287 250 l 287 775 l 459 775 l 459 237 q 459 107 407 45 q 355 -17 247 -17 q 155 -17 89 31 q 23 78 -8 168 z"},"V":{"x_min":0,"x_max":771,"ha":771,"o":"m 303 0 l 27 775 l 209 775 l 354 327 q 363 298 371 263 q 379 229 386 189 q 391 222 399 256 q 407 290 419 327 l 568 775 l 744 775 l 465 0 z"},"\"":{"x_min":0,"x_max":331,"ha":331,"o":"m 198 702 l 292 702 l 292 429 l 198 429 z m 39 702 l 133 702 l 133 429 l 39 429 z"},"7":{"x_min":0,"x_max":542,"ha":542,"o":"m 65 0 l 325 630 l 46 630 l 46 762 l 516 762 l 224 0 z"},"S":{"x_min":0,"x_max":586,"ha":586,"o":"m 373 444 q 458 403 494 353 q 531 304 531 230 q 531 120 461 52 q 392 -16 280 -16 q 209 -16 151 11 q 92 39 40 96 l 124 205 q 158 165 197 144 q 235 123 274 123 q 317 123 344 149 q 371 174 371 216 q 371 245 355 265 q 339 284 292 308 l 211 349 q 126 392 91 441 q 56 490 56 562 q 56 661 124 726 q 191 792 294 792 q 366 792 421 765 q 477 738 517 684 l 421 586 q 392 621 362 637 q 333 653 297 653 q 262 653 240 631 q 217 608 217 574 q 217 546 233 524 q 250 503 284 486 z"},"}":{"x_min":0,"x_max":500,"ha":500,"o":"m 70 721 l 103 721 q 157 721 189 715 q 222 709 244 697 q 272 681 283 652 q 295 623 295 555 l 295 432 q 295 365 320 337 q 345 309 404 309 q 407 309 414 310 q 420 310 424 310 l 424 208 l 406 208 q 345 208 320 181 q 295 153 295 86 l 295 -37 q 295 -107 283 -135 q 272 -164 244 -179 q 221 -191 188 -197 q 156 -203 107 -203 q 101 -203 89 -203 q 77 -202 70 -202 l 70 -100 q 74 -100 82 -101 q 90 -101 93 -101 q 142 -101 159 -82 q 177 -63 177 -4 l 177 113 q 177 186 199 216 q 221 246 278 259 q 221 272 199 302 q 177 333 177 405 l 177 523 q 177 583 159 601 q 142 620 93 620 q 90 620 82 620 q 74 619 70 619 z"},"Z":{"x_min":0,"x_max":630,"ha":630,"o":"m 20 0 l 335 627 l 67 627 l 67 775 l 597 775 l 283 148 l 582 148 l 582 0 z"},"x":{"x_min":0,"x_max":501,"ha":501,"o":"m 345 0 l 240 201 l 144 0 l -9 0 l 162 308 l -2 604 l 161 604 l 256 422 l 344 604 l 495 604 l 335 314 l 510 0 z"},")":{"x_min":0,"x_max":424,"ha":424,"o":"m 1 -81 q 91 18 136 128 q 182 237 182 355 q 182 473 136 582 q 91 692 1 791 l 161 791 q 243 696 284 587 q 325 478 325 355 q 325 232 284 123 q 243 14 161 -81 z"},"&":{"x_min":0,"x_max":750,"ha":750,"o":"m 301 331 q 253 306 230 276 q 207 247 207 211 q 207 170 235 143 q 264 116 307 116 q 339 116 371 130 q 403 144 433 171 z m 327 492 q 377 520 398 546 q 420 573 420 607 q 420 641 399 664 q 379 686 348 686 q 315 686 293 664 q 272 642 272 608 q 272 583 286 554 q 299 525 327 492 z m 564 0 l 508 70 q 448 26 390 5 q 332 -16 272 -16 q 167 -16 101 46 q 35 108 35 206 q 35 280 78 336 q 121 393 208 434 q 171 471 153 510 q 135 550 135 596 q 135 684 193 738 q 250 792 344 792 q 438 792 494 741 q 551 690 551 608 q 551 545 519 496 q 486 447 417 403 l 530 269 q 551 290 574 316 q 597 342 629 381 l 726 292 q 701 257 673 225 q 646 193 615 165 l 753 0 z"},"_":{"x_min":0,"x_max":500,"ha":500,"o":"m 0 -136 l 500 -136 l 500 -236 l 0 -236 z"},"v":{"x_min":0,"x_max":510,"ha":510,"o":"m 157 604 l 226 329 q 228 321 232 305 q 251 233 255 186 q 261 229 268 266 q 275 302 284 334 l 358 604 l 510 604 l 320 0 l 187 0 l 0 604 z"},"O":{"x_min":0,"x_max":762,"ha":762,"o":"m 382 137 q 452 137 494 205 q 537 273 537 387 q 537 502 494 570 q 451 638 379 638 q 310 638 267 570 q 225 502 225 388 q 225 272 268 205 q 310 137 382 137 z m 383 -16 q 308 -16 247 11 q 187 39 142 93 q 94 152 71 226 q 47 299 47 388 q 47 478 71 552 q 95 625 143 684 q 186 737 246 765 q 307 792 382 792 q 456 792 516 765 q 577 737 620 684 q 667 626 690 552 q 714 478 714 387 q 714 298 691 224 q 667 151 621 93 q 578 40 517 12 q 457 -16 383 -16 z"},"(":{"x_min":0,"x_max":424,"ha":424,"o":"m 429 791 q 339 692 293 582 q 248 473 248 355 q 248 237 293 128 q 339 18 429 -81 l 270 -81 q 188 14 146 124 q 105 233 105 355 q 105 477 146 586 q 188 696 270 791 z"},"C":{"x_min":0,"x_max":663,"ha":663,"o":"m 626 54 q 581 19 526 1 q 472 -16 404 -16 q 327 -16 262 11 q 197 38 150 89 q 99 146 73 220 q 47 295 47 386 q 47 447 58 502 q 70 557 92 601 q 139 695 214 744 q 290 792 392 792 q 452 792 505 777 q 559 763 608 733 l 608 553 q 576 595 532 615 q 488 636 433 636 q 338 636 281 569 q 224 501 224 388 q 224 273 282 207 q 340 140 440 140 q 496 140 543 160 q 589 181 626 221 z"},"W":{"x_min":0,"x_max":1009,"ha":1009,"o":"m 196 775 l 288 335 q 298 289 302 252 q 307 215 308 182 q 310 208 315 240 q 319 271 329 319 l 420 775 l 588 775 l 680 319 q 688 278 693 245 q 698 211 700 182 q 701 213 706 250 q 711 287 721 335 l 812 775 l 961 775 l 781 0 l 620 0 l 522 464 q 515 496 511 530 q 506 565 504 603 q 500 556 496 523 q 492 491 486 464 l 388 0 l 228 0 l 47 775 z"},"A":{"x_min":0,"x_max":762,"ha":762,"o":"m 250 148 l 209 0 l 34 0 l 286 775 l 475 775 l 727 0 l 553 0 l 512 148 z m 274 271 l 474 271 l 375 637 z"},"f":{"x_min":0,"x_max":361,"ha":361,"o":"m 347 655 q 335 663 324 667 q 313 670 301 670 q 274 670 260 653 q 245 636 245 604 l 245 514 l 347 514 l 347 398 l 245 398 l 245 0 l 85 0 l 85 398 l 4 398 l 4 514 l 85 514 l 85 605 q 85 699 126 743 q 168 787 256 787 q 284 787 306 783 q 328 780 347 772 z"},"Q":{"x_min":0,"x_max":762,"ha":762,"o":"m 424 146 l 327 274 l 444 322 l 508 233 q 523 260 530 294 q 537 329 537 375 q 537 500 495 569 q 453 638 379 638 q 310 638 267 570 q 225 502 225 388 q 225 274 267 206 q 309 137 377 137 q 386 137 397 139 q 409 142 424 146 z m 526 17 q 493 0 457 -8 q 421 -16 381 -16 q 308 -16 246 12 q 185 40 142 92 q 94 150 71 224 q 47 298 47 388 q 47 477 71 551 q 95 625 142 684 q 185 737 246 764 q 307 792 381 792 q 455 792 515 764 q 576 737 619 684 q 667 626 690 552 q 714 478 714 387 q 714 300 691 228 q 669 157 622 95 l 718 -27 l 603 -81 z"},"w":{"x_min":0,"x_max":796,"ha":796,"o":"m 462 604 l 525 289 l 527 280 q 545 184 550 124 q 552 160 558 202 q 564 244 575 294 l 639 604 l 782 604 l 628 0 l 478 0 l 422 257 q 418 276 411 319 q 405 362 398 414 q 391 362 385 319 q 378 276 374 257 l 317 0 l 168 0 l 13 604 l 156 604 l 221 294 q 230 248 237 205 q 243 163 245 124 q 250 178 267 269 q 270 282 271 289 l 333 604 z"},"-":{"x_min":0,"x_max":366,"ha":366,"o":"m 42 238 l 42 373 l 324 373 l 324 238 z"},"E":{"x_min":0,"x_max":801,"ha":801,"o":"m 119 0 l 119 775 l 708 775 l 708 622 l 292 622 l 292 472 l 681 472 l 681 328 l 292 328 l 292 153 l 708 153 l 708 0 z"},"s":{"x_min":0,"x_max":505,"ha":505,"o":"m 335 455 q 316 480 295 492 q 274 505 250 505 q 219 505 201 490 q 184 474 184 447 q 184 407 277 373 q 284 371 288 369 q 393 332 429 290 q 466 248 466 174 q 466 87 407 36 q 348 -16 249 -16 q 169 -16 111 15 q 52 45 31 97 l 142 163 q 164 134 189 119 q 215 105 245 105 q 279 105 299 122 q 320 138 320 165 q 320 206 240 237 q 218 246 206 251 q 106 293 72 334 q 37 375 37 440 q 37 521 95 571 q 152 620 247 620 q 317 620 369 592 q 420 563 450 509 z"},">":{"x_min":0,"x_max":833,"ha":833,"o":"m 129 583 l 704 347 l 704 250 l 129 13 l 129 120 l 566 298 l 129 476 z"},"l":{"x_min":0,"x_max":289,"ha":289,"o":"m 64 0 l 64 787 l 224 787 l 224 0 z"},"8":{"x_min":0,"x_max":542,"ha":542,"o":"m 181 219 q 181 168 205 138 q 229 108 270 108 q 311 108 335 138 q 359 168 359 219 q 359 270 335 301 q 311 331 270 331 q 229 331 205 301 q 181 271 181 219 z m 186 557 q 186 508 209 480 q 232 451 270 451 q 308 451 331 480 q 354 509 354 557 q 354 605 331 634 q 308 662 270 662 q 231 662 209 634 q 186 605 186 557 z m 401 400 q 451 369 478 321 q 505 272 505 212 q 505 164 487 122 q 469 79 436 47 q 404 16 362 0 q 320 -16 271 -16 q 222 -16 180 0 q 138 16 106 47 q 72 79 54 122 q 36 165 36 212 q 36 272 63 321 q 90 369 140 400 q 98 430 77 471 q 56 512 56 566 q 56 659 117 718 q 177 778 271 778 q 365 778 425 718 q 486 659 486 566 q 486 512 465 471 q 444 430 401 400 z"},"\\":{"x_min":0,"x_max":322,"ha":322,"o":"m -59 792 l 35 792 l 357 -93 l 263 -93 z"},"e":{"x_min":0,"x_max":553,"ha":553,"o":"m 182 263 l 182 256 q 182 187 210 146 q 237 105 284 105 q 312 105 334 123 q 356 140 370 174 l 500 117 q 469 53 412 19 q 355 -16 281 -16 q 163 -16 96 69 q 30 153 30 303 q 30 450 96 535 q 162 620 274 620 q 396 620 458 536 q 520 453 520 287 l 520 263 z m 184 355 l 369 355 q 365 431 340 473 q 315 515 276 515 q 236 515 212 473 q 188 432 184 355 z"},"b":{"x_min":0,"x_max":579,"ha":579,"o":"m 297 128 q 337 128 360 173 q 382 218 382 301 q 382 384 360 428 q 338 473 297 473 q 256 473 233 428 q 211 383 211 301 q 211 218 234 173 q 256 128 297 128 z m 65 0 l 65 787 l 224 787 l 224 625 q 224 589 221 556 q 218 523 212 494 q 233 551 271 582 q 308 613 356 613 q 444 613 494 530 q 545 447 545 302 q 545 162 491 76 q 437 -10 350 -10 q 293 -10 253 28 q 212 66 187 142 q 192 109 195 73 q 198 38 200 0 z"},"%":{"x_min":0,"x_max":1088,"ha":1088,"o":"m 704 201 q 704 151 739 116 q 773 81 823 81 q 873 81 908 116 q 943 151 943 201 q 943 251 908 286 q 873 321 823 321 q 773 321 739 286 q 704 251 704 201 z m 606 201 q 606 245 622 284 q 639 324 670 355 q 701 386 740 403 q 780 419 823 419 q 866 419 906 403 q 945 386 977 355 q 1008 324 1025 284 q 1041 245 1041 201 q 1041 157 1025 118 q 1008 79 977 48 q 945 17 906 0 q 866 -16 823 -16 q 779 -16 740 0 q 701 17 670 47 q 639 79 622 118 q 606 157 606 201 z m 281 -16 l 725 778 l 806 778 l 361 -16 z m 144 560 q 144 510 179 476 q 214 441 264 441 q 314 441 349 476 q 384 510 384 560 q 384 610 349 645 q 314 680 264 680 q 214 680 179 645 q 144 610 144 560 z m 46 560 q 46 604 62 644 q 79 683 110 714 q 141 745 181 761 q 221 778 264 778 q 307 778 347 761 q 386 745 418 714 q 449 683 465 644 q 481 604 481 560 q 481 516 465 477 q 449 438 418 407 q 386 376 347 359 q 307 343 264 343 q 220 343 180 359 q 141 375 110 406 q 79 438 62 477 q 46 516 46 560 z"},"m":{"x_min":0,"x_max":883,"ha":883,"o":"m 66 0 l 66 604 l 209 604 q 208 565 205 529 q 202 493 197 461 q 226 539 269 577 q 312 615 372 615 q 423 615 459 588 q 496 561 515 508 q 544 562 582 589 q 619 615 669 615 q 742 615 781 565 q 821 515 821 420 l 821 0 l 661 0 l 661 354 q 661 440 649 461 q 637 482 603 482 q 561 482 542 438 q 524 395 524 289 l 524 278 l 524 0 l 363 0 l 363 354 q 363 440 351 461 q 339 482 305 482 q 262 482 244 438 q 226 394 226 278 l 226 0 z"},"#":{"x_min":0,"x_max":769,"ha":769,"o":"m 346 414 l 303 295 l 426 295 l 468 414 z m 346 715 l 454 715 l 383 512 l 501 512 l 573 715 l 681 715 l 609 512 l 747 512 l 711 414 l 574 414 l 533 296 l 675 296 l 640 198 l 498 198 l 426 -5 l 318 -5 l 390 198 l 271 198 l 198 -5 l 91 -5 l 162 198 l 22 198 l 59 296 l 197 296 l 239 414 l 93 414 l 129 512 l 274 512 z"},",":{"x_min":0,"x_max":271,"ha":271,"o":"m -22 -88 l 94 241 l 260 241 l 107 -88 z"},"n":{"x_min":0,"x_max":602,"ha":602,"o":"m 373 0 l 373 354 q 373 437 361 459 q 349 482 316 482 q 269 482 250 439 q 231 396 231 278 l 231 0 l 66 0 l 66 604 l 209 604 q 208 565 205 530 q 202 495 197 461 q 226 538 271 577 q 317 615 379 615 q 456 615 496 565 q 537 515 537 420 l 537 0 z"},"h":{"x_min":0,"x_max":602,"ha":602,"o":"m 373 0 l 373 354 q 373 437 361 459 q 349 482 316 482 q 269 482 250 439 q 231 396 231 278 l 231 0 l 66 0 l 66 787 l 231 787 l 231 607 q 231 586 229 559 q 226 531 221 499 q 247 557 286 586 q 325 615 378 615 q 455 615 496 565 q 537 514 537 420 l 537 0 z"},"z":{"x_min":0,"x_max":473,"ha":473,"o":"m 3 0 l 224 481 l 22 481 l 22 604 l 449 604 l 228 123 l 449 123 l 449 0 z"},"B":{"x_min":0,"x_max":752,"ha":752,"o":"m 119 0 l 119 775 l 361 775 q 444 775 484 770 q 524 765 547 753 q 594 729 616 688 q 639 647 639 588 q 639 532 619 494 q 598 456 554 428 q 627 403 663 355 q 699 307 699 234 q 699 111 628 56 q 557 0 400 0 z m 290 337 l 290 129 l 400 129 q 467 129 497 153 q 527 178 527 233 q 527 288 497 312 q 467 337 400 337 z m 291 648 l 291 458 l 357 458 q 417 458 446 481 q 474 504 474 553 q 474 604 447 626 q 420 648 357 648 z"},"K":{"x_min":0,"x_max":778,"ha":778,"o":"m 119 0 l 119 775 l 292 775 l 292 424 l 572 775 l 771 775 l 464 400 l 785 0 l 577 0 l 292 362 l 292 0 z"},"R":{"x_min":0,"x_max":766,"ha":766,"o":"m 119 0 l 119 775 l 394 775 q 543 775 617 718 q 690 661 690 545 q 690 453 643 399 q 595 345 498 326 l 743 0 l 543 0 l 323 312 l 287 312 l 287 0 z m 287 437 l 354 437 q 446 437 480 460 q 515 484 515 541 q 515 600 483 623 q 451 646 354 646 l 287 646 z"},"T":{"x_min":0,"x_max":704,"ha":704,"o":"m 45 625 l 45 775 l 659 775 l 659 625 l 438 625 l 438 0 l 266 0 l 266 625 z"},"P":{"x_min":0,"x_max":763,"ha":763,"o":"m 292 430 l 370 430 q 459 430 493 454 q 527 478 527 537 q 527 598 496 621 q 465 644 370 644 l 292 644 z m 292 299 l 292 0 l 119 0 l 119 775 l 443 775 q 570 775 637 715 q 704 656 704 543 q 704 424 634 361 q 564 299 431 299 z"},"|":{"x_min":0,"x_max":500,"ha":500,"o":"m 200 764 l 301 764 l 301 -236 l 200 -236 z"},"t":{"x_min":0,"x_max":370,"ha":370,"o":"m 265 775 l 265 604 l 364 604 l 364 488 l 265 488 l 265 0 l 105 0 l 105 488 l 5 488 l 5 604 l 105 604 l 105 775 z"},"M":{"x_min":0,"x_max":1044,"ha":1044,"o":"m 457 0 l 314 468 l 313 470 q 289 552 280 599 l 280 585 q 280 562 278 534 q 276 505 272 469 l 219 0 l 69 0 l 183 775 l 353 775 l 493 322 q 502 292 510 261 q 517 230 522 198 q 527 230 534 261 q 541 292 550 322 l 692 775 l 861 775 l 975 0 l 825 0 l 772 469 q 768 505 766 532 q 764 560 764 586 l 764 599 q 759 572 751 542 q 744 512 730 468 l 586 0 z"},"g":{"x_min":0,"x_max":576,"ha":576,"o":"m 511 604 l 511 88 q 511 -48 448 -116 q 385 -184 259 -184 q 168 -184 112 -149 q 56 -114 47 -52 l 211 -52 q 215 -68 229 -76 q 242 -84 265 -84 q 312 -84 330 -56 q 348 -27 348 70 l 348 138 q 328 88 296 63 q 264 38 220 38 q 138 38 85 116 q 32 195 32 321 q 32 452 86 531 q 140 611 226 611 q 276 611 316 576 q 355 541 377 477 q 371 511 368 542 q 365 574 365 604 z m 276 174 q 314 174 336 215 q 359 256 359 326 q 359 396 336 438 q 314 479 277 479 q 239 479 217 438 q 194 396 194 326 q 194 256 216 215 q 239 174 276 174 z"},"j":{"x_min":0,"x_max":289,"ha":289,"o":"m 245 717 q 245 683 219 664 q 193 646 144 646 q 95 646 69 664 q 43 683 43 717 q 43 751 69 769 q 95 787 144 787 q 193 787 219 769 q 245 751 245 717 z m 64 -183 l 64 569 l 224 569 l 224 -183 z"},"i":{"x_min":0,"x_max":289,"ha":289,"o":"m 245 717 q 245 683 219 664 q 193 646 144 646 q 95 646 69 664 q 43 683 43 717 q 43 751 69 769 q 95 787 144 787 q 193 787 219 769 q 245 751 245 717 z m 64 0 l 64 569 l 224 569 l 224 0 z"},"y":{"x_min":0,"x_max":515,"ha":515,"o":"m 83 -183 l 172 65 l 3 604 l 162 604 l 224 355 q 232 322 240 284 q 247 247 254 205 q 260 236 267 266 q 273 296 281 325 l 359 604 l 517 604 l 242 -183 z"},"@":{"x_min":0,"x_max":1000,"ha":1000,"o":"m 570 133 q 543 92 508 73 q 473 53 425 53 q 348 53 307 95 q 267 137 267 219 q 267 336 335 415 q 403 494 503 494 q 542 494 571 478 q 600 462 618 430 l 644 478 l 731 478 l 659 186 q 658 181 657 175 q 656 169 656 166 q 656 149 667 140 q 679 132 702 132 q 721 132 742 142 q 763 151 781 169 q 823 208 844 260 q 866 312 866 375 q 866 492 776 568 q 685 643 542 643 q 473 643 414 626 q 354 610 306 577 q 223 521 178 438 q 134 354 134 255 q 134 105 235 15 q 336 -74 505 -74 q 584 -74 659 -50 q 735 -26 800 19 l 840 -38 q 765 -94 681 -123 q 598 -151 507 -151 q 413 -151 334 -127 q 256 -104 195 -57 q 119 2 82 79 q 44 156 44 254 q 44 335 70 409 q 95 483 145 544 q 217 632 319 678 q 420 723 545 723 q 627 723 700 701 q 772 679 826 638 q 892 587 925 521 q 957 456 957 373 q 957 292 925 224 q 893 156 833 108 q 799 81 759 66 q 718 52 675 52 q 623 52 597 72 q 571 93 570 133 z m 594 342 q 588 381 566 402 q 544 423 509 423 q 453 423 412 362 q 371 302 371 217 q 371 172 391 148 q 411 125 448 125 q 489 125 522 156 q 556 187 568 236 z"},".":{"x_min":0,"x_max":271,"ha":271,"o":"m 135 -8 q 93 -8 65 21 q 36 49 36 91 q 36 132 65 162 q 94 191 135 191 q 176 191 206 162 q 235 132 235 91 q 235 50 206 21 q 177 -8 135 -8 z"},"p":{"x_min":0,"x_max":579,"ha":579,"o":"m 299 130 q 338 130 361 174 q 384 218 384 295 q 384 383 362 429 q 341 475 299 475 q 258 475 236 430 q 214 386 214 303 q 214 220 236 175 q 258 130 299 130 z m 189 462 q 213 537 255 575 q 296 614 353 614 q 439 614 493 528 q 547 441 547 301 q 547 155 497 73 q 446 -10 359 -10 q 312 -10 274 21 q 236 52 215 109 q 221 80 224 47 q 227 15 227 -21 l 227 -183 l 67 -183 l 67 603 l 202 603 q 200 565 197 531 q 194 496 189 462 z"},"X":{"x_min":0,"x_max":752,"ha":752,"o":"m 553 0 l 365 288 l 186 0 l -4 0 l 266 404 l 20 775 l 218 775 l 382 525 l 544 775 l 729 775 l 482 407 l 756 0 z"},"*":{"x_min":0,"x_max":472,"ha":472,"o":"m 235 527 l 153 356 l 58 425 l 194 557 l 9 582 l 44 694 l 210 605 l 177 792 l 294 791 l 261 605 l 427 694 l 463 583 l 276 557 l 413 425 l 317 356 z"},"Y":{"x_min":0,"x_max":741,"ha":741,"o":"m 283 0 l 283 354 l -8 775 l 188 775 l 371 483 l 557 775 l 748 775 l 456 354 l 456 0 z"},"c":{"x_min":0,"x_max":537,"ha":537,"o":"m 485 424 q 459 453 425 468 q 392 482 350 482 q 277 482 235 435 q 193 387 193 305 q 193 222 236 174 q 279 126 355 126 q 392 126 423 139 q 455 152 485 180 l 485 25 q 456 4 416 -6 q 375 -17 326 -17 q 189 -17 111 69 q 32 154 32 303 q 32 447 110 534 q 188 621 318 621 q 365 621 407 610 q 450 598 485 576 z"},"!":{"x_min":0,"x_max":317,"ha":317,"o":"m 241 775 l 241 257 l 76 257 l 76 775 z m 158 -8 q 116 -8 88 21 q 59 49 59 91 q 59 132 88 162 q 117 191 158 191 q 199 191 229 162 q 258 132 258 91 q 258 50 229 21 q 200 -8 158 -8 z"},"/":{"x_min":0,"x_max":322,"ha":322,"o":"m 35 -93 l -59 -93 l 263 792 l 357 792 z"},"[":{"x_min":0,"x_max":424,"ha":424,"o":"m 117 -81 l 117 775 l 418 775 l 418 706 l 256 706 l 256 -12 l 417 -12 l 417 -81 z"},"6":{"x_min":0,"x_max":542,"ha":542,"o":"m 274 114 q 314 114 338 146 q 362 177 362 231 q 362 284 338 316 q 314 347 274 347 q 234 347 210 315 q 186 284 186 231 q 186 177 210 146 q 234 114 274 114 z m 262 470 q 267 471 272 471 q 278 471 288 471 q 389 471 449 406 q 510 340 510 229 q 510 121 445 52 q 380 -17 279 -17 q 173 -17 105 55 q 37 128 37 241 q 37 295 56 355 q 75 416 111 477 l 280 762 l 454 762 z"},"r":{"x_min":0,"x_max":419,"ha":419,"o":"m 65 0 l 65 604 l 206 604 q 206 571 203 534 q 201 497 196 451 q 226 534 269 573 q 312 613 371 613 q 376 613 382 613 q 387 612 400 611 l 400 430 q 381 439 363 444 q 345 448 327 448 q 272 448 249 414 q 225 380 225 298 l 225 0 z"},"2":{"x_min":0,"x_max":542,"ha":542,"o":"m 6 0 q 31 33 78 94 q 338 437 338 550 q 338 593 318 618 q 298 642 263 642 q 221 642 200 610 q 180 577 180 509 l 180 504 l 40 504 q 40 508 40 516 q 39 523 39 527 q 39 644 99 711 q 159 778 262 778 q 366 778 427 716 q 488 654 488 548 q 488 457 434 358 q 381 259 262 133 l 501 133 l 501 0 z"},"{":{"x_min":0,"x_max":500,"ha":500,"o":"m 431 721 l 431 619 q 427 619 419 620 q 411 620 408 620 q 359 620 342 601 q 324 583 324 522 l 324 405 q 324 333 302 302 q 280 272 223 259 q 280 246 302 216 q 324 186 324 114 l 324 -4 q 324 -64 341 -83 q 358 -101 408 -101 q 411 -101 419 -101 q 427 -100 431 -100 l 431 -202 q 424 -202 412 -203 q 400 -203 394 -203 q 345 -203 312 -197 q 280 -191 257 -179 q 229 -163 218 -135 q 206 -106 206 -37 l 206 86 q 206 153 181 181 q 156 209 97 209 q 94 209 87 208 q 81 208 77 208 l 77 310 q 81 310 87 310 q 94 309 97 309 q 156 309 181 337 q 206 366 206 433 l 206 555 q 206 625 218 653 q 229 682 257 698 q 280 710 312 716 q 345 722 394 722 q 400 722 412 722 q 424 721 431 721 z"},"9":{"x_min":0,"x_max":542,"ha":542,"o":"m 266 647 q 226 647 202 616 q 179 585 179 531 q 179 478 203 446 q 226 415 266 415 q 306 415 330 447 q 354 478 354 531 q 354 584 330 616 q 306 647 266 647 z m 279 291 q 274 291 269 290 q 263 290 253 290 q 151 290 91 356 q 30 422 30 533 q 30 641 95 709 q 160 778 262 778 q 368 778 435 706 q 503 633 503 520 q 503 465 484 406 q 466 346 430 285 l 260 0 l 87 0 z"}," ":{"x_min":0,"x_max":271,"ha":271,"o":""},"I":{"x_min":0,"x_max":411,"ha":411,"o":"m 119 0 l 119 775 l 292 775 l 292 0 z"},"H":{"x_min":0,"x_max":843,"ha":843,"o":"m 119 0 l 119 775 l 292 775 l 292 479 l 550 479 l 550 775 l 723 775 l 723 0 l 550 0 l 550 326 l 292 326 l 292 0 z"},"4":{"x_min":0,"x_max":542,"ha":542,"o":"m 324 306 l 336 635 l 137 306 z m 314 0 l 314 185 l 18 185 l 18 296 l 307 762 l 457 762 l 457 306 l 520 306 l 520 185 l 457 185 l 457 0 z"},"~":{"x_min":0,"x_max":833,"ha":833,"o":"m 747 392 l 747 284 q 696 250 651 233 q 606 217 562 217 q 540 217 517 221 q 495 225 472 232 q 460 236 438 244 q 331 281 275 281 q 233 281 188 262 q 143 244 87 204 l 87 312 q 139 347 187 365 q 234 382 276 382 q 333 382 418 354 l 420 353 q 429 350 447 344 q 522 317 564 317 q 605 317 649 335 q 693 353 747 392 z"},"D":{"x_min":0,"x_max":852,"ha":852,"o":"m 362 623 l 291 623 l 291 153 l 362 153 q 481 153 541 212 q 600 271 600 389 q 600 507 541 565 q 482 623 362 623 z m 119 0 l 119 775 l 343 775 q 431 775 493 765 q 555 755 593 734 q 683 684 730 596 q 777 508 777 390 q 777 272 733 187 q 689 101 603 49 q 560 23 494 11 q 428 0 318 0 z"},"^":{"x_min":0,"x_max":1000,"ha":1000,"o":"m 438 713 l 561 713 l 796 439 l 681 439 l 500 620 l 318 439 l 203 439 z"},"0":{"x_min":0,"x_max":542,"ha":542,"o":"m 271 122 q 310 122 327 183 q 345 245 345 381 q 345 518 328 578 q 310 639 271 639 q 232 639 214 578 q 196 517 196 381 q 196 246 214 184 q 232 122 271 122 z m 32 381 q 32 566 96 672 q 160 778 271 778 q 383 778 446 673 q 509 568 509 381 q 509 194 446 89 q 383 -16 272 -16 q 161 -16 96 90 q 32 195 32 381 z"},"F":{"x_min":0,"x_max":718,"ha":718,"o":"m 119 0 l 119 775 l 674 775 l 674 622 l 292 622 l 292 472 l 646 472 l 646 328 l 292 328 l 292 0 z"},"`":{"x_min":0,"x_max":500,"ha":500,"o":"m 107 855 l 233 855 l 329 674 l 260 674 z"},"k":{"x_min":0,"x_max":542,"ha":542,"o":"m 65 0 l 65 787 l 220 787 l 220 311 l 358 604 l 528 604 l 387 324 l 555 0 l 374 0 l 220 297 l 220 0 z"},"u":{"x_min":0,"x_max":595,"ha":595,"o":"m 222 604 l 222 227 q 222 173 241 145 q 260 117 297 117 q 334 117 353 145 q 372 172 372 227 l 372 604 l 532 604 l 532 230 q 532 114 470 49 q 408 -16 297 -16 q 186 -16 124 49 q 62 113 62 230 l 62 604 z"},"]":{"x_min":0,"x_max":424,"ha":424,"o":"m 6 -81 l 6 -12 l 168 -12 l 168 706 l 6 706 l 6 775 l 306 775 l 306 -81 z"},"U":{"x_min":0,"x_max":812,"ha":812,"o":"m 117 775 l 289 775 l 289 346 q 289 237 317 187 q 346 136 406 136 q 466 136 495 187 q 523 237 523 346 l 523 775 l 695 775 l 695 341 q 695 166 622 75 q 548 -16 406 -16 q 264 -16 190 75 q 117 166 117 341 z"},"o":{"x_min":0,"x_max":558,"ha":558,"o":"m 279 111 q 318 111 340 160 q 361 210 361 302 q 361 394 340 443 q 318 493 279 493 q 240 493 218 444 q 197 394 197 302 q 197 210 218 160 q 240 111 279 111 z m 32 302 q 32 447 99 534 q 167 620 279 620 q 391 620 458 534 q 525 447 525 302 q 525 157 458 70 q 391 -16 279 -16 q 167 -16 99 70 q 32 157 32 302 z"},"N":{"x_min":0,"x_max":824,"ha":824,"o":"m 556 0 l 302 427 q 291 445 281 474 q 270 503 261 540 q 266 494 268 452 q 270 411 270 376 l 270 0 l 119 0 l 119 775 l 269 775 l 512 364 q 531 332 544 300 q 556 267 563 233 q 558 282 556 323 q 553 364 553 396 l 553 775 l 705 775 l 705 0 z"},"+":{"x_min":0,"x_max":833,"ha":833,"o":"m 367 596 l 466 596 l 466 347 l 709 347 l 709 250 l 466 250 l 466 0 l 367 0 l 367 250 l 124 250 l 124 347 l 367 347 z"},"G":{"x_min":0,"x_max":794,"ha":794,"o":"m 745 417 q 746 396 747 385 q 747 375 747 367 q 747 313 739 268 q 730 223 714 189 q 665 85 589 35 q 514 -16 407 -16 q 330 -16 263 13 q 197 42 148 97 q 97 155 72 227 q 47 299 47 388 q 47 477 72 551 q 98 624 148 681 q 196 736 262 764 q 329 792 411 792 q 502 792 572 754 q 642 717 695 639 l 568 541 q 539 592 500 617 q 461 641 409 641 q 323 641 272 573 q 221 504 221 388 q 221 272 274 203 q 327 134 414 134 q 480 134 526 175 q 571 217 574 280 l 394 280 l 394 417 z"},"q":{"x_min":0,"x_max":579,"ha":579,"o":"m 281 130 q 322 130 344 175 q 366 220 366 303 q 366 386 344 430 q 322 475 281 475 q 240 475 218 430 q 195 385 195 303 q 195 220 218 175 q 240 130 281 130 z m 353 -183 l 353 -21 q 353 15 356 47 q 359 80 365 109 q 344 52 306 21 q 269 -10 221 -10 q 133 -10 83 73 q 32 156 32 301 q 32 441 86 528 q 141 614 227 614 q 283 614 324 576 q 365 538 390 462 q 385 496 382 531 q 378 566 377 603 l 512 603 l 512 -183 z"},"d":{"x_min":0,"x_max":579,"ha":579,"o":"m 281 128 q 322 128 344 173 q 366 218 366 301 q 366 384 344 428 q 322 473 281 473 q 240 473 218 428 q 195 383 195 301 q 195 218 218 173 q 240 128 281 128 z m 512 0 l 377 0 q 378 38 382 73 q 385 109 390 142 q 365 66 324 28 q 283 -10 227 -10 q 141 -10 86 76 q 32 162 32 302 q 32 447 83 530 q 133 613 221 613 q 269 613 306 582 q 344 551 365 494 q 359 523 356 556 q 353 589 353 625 l 353 787 l 512 787 z"},"1":{"x_min":0,"x_max":542,"ha":542,"o":"m 207 0 l 207 627 l 81 627 l 81 762 l 353 762 l 353 0 z"},"5":{"x_min":0,"x_max":542,"ha":542,"o":"m 52 200 q 82 164 121 145 q 161 126 205 126 q 263 126 300 161 q 336 197 336 253 q 336 312 297 347 q 258 382 192 382 q 164 382 137 375 q 111 369 84 355 l 65 367 l 137 762 l 470 762 l 470 629 l 250 629 l 227 502 q 232 502 239 503 q 246 503 258 503 q 367 503 430 438 q 492 374 492 261 q 492 136 420 60 q 347 -16 229 -16 q 179 -16 130 -3 q 81 11 31 38 z"}}}
